<?xml version="1.0" encoding="UTF-8" standalone="no"?><svg xmlns="http://www.w3.org/2000/svg" xmlns:xlink="http://www.w3.org/1999/xlink" fill="#ffffff" height="429" version="1" viewBox="48.7 41.7 414.7 428.7" width="415"><g fill="inherit"><path d="M 359.496094 240.617188 C 359.496094 216.777344 378.890625 197.386719 402.730469 197.386719 C 426.5625 197.386719 445.957031 216.777344 445.957031 240.617188 C 445.957031 264.453125 426.5625 283.847656 402.730469 283.847656 C 378.890625 283.847656 359.496094 264.453125 359.496094 240.617188 Z M 430.511719 290.617188 C 448.054688 280.832031 459.953125 262.089844 459.953125 240.617188 C 459.953125 209.0625 434.28125 183.390625 402.730469 183.390625 C 371.171875 183.390625 345.5 209.0625 345.5 240.617188 C 345.5 262.304688 357.628906 281.214844 375.460938 290.917969 C 365.082031 296.558594 356.085938 305.351562 349.785156 316.523438 L 346.292969 323.222656 L 314.136719 410.941406 L 268.6875 410.941406 C 260.800781 410.941406 253.429688 414.058594 247.9375 419.722656 C 242.441406 425.382812 239.550781 432.847656 239.785156 440.742188 C 240.246094 456.195312 253.625 468.769531 269.609375 468.769531 L 334.4375 468.769531 C 346.597656 468.769531 357.53125 461.082031 361.644531 449.636719 L 382.871094 390.601562 C 384.179688 386.964844 382.292969 382.957031 378.65625 381.648438 C 375.019531 380.347656 371.011719 382.230469 369.703125 385.867188 L 348.480469 444.902344 C 346.351562 450.808594 340.710938 454.773438 334.4375 454.773438 L 269.609375 454.773438 C 261.117188 454.773438 254.015625 448.292969 253.773438 440.320312 C 253.648438 436.242188 255.144531 432.386719 257.976562 429.46875 C 260.816406 426.542969 264.617188 424.933594 268.6875 424.933594 L 314.449219 424.933594 C 320.117188 424.933594 325.226562 421.359375 327.167969 416.042969 L 358.910156 329.289062 L 362.085938 323.199219 C 370.769531 307.792969 386.726562 297.839844 402.730469 297.839844 C 428.425781 297.839844 449.335938 318.753906 449.335938 344.453125 L 449.335938 463.332031 C 449.335938 467.199219 452.472656 470.332031 456.335938 470.332031 C 460.199219 470.332031 463.332031 467.199219 463.332031 463.332031 L 463.332031 344.453125 C 463.332031 321.046875 449.984375 300.710938 430.511719 290.617188"/><path d="M 94.855469 235.851562 C 118.472656 235.851562 137.691406 216.636719 137.691406 193.019531 C 137.691406 169.398438 118.472656 150.1875 94.855469 150.1875 C 71.242188 150.1875 52.027344 169.398438 52.027344 193.019531 C 52.027344 216.636719 71.242188 235.851562 94.855469 235.851562"/><path d="M 238.757812 380.769531 C 235.964844 377.695312 231.988281 375.9375 227.84375 375.9375 L 173.003906 375.9375 L 138.273438 281.015625 L 135.019531 274.773438 C 124.488281 256.101562 100.972656 242.824219 76.648438 253.972656 C 59.652344 261.757812 48.667969 279.425781 48.667969 298.980469 L 48.667969 405.429688 L 137.941406 405.429688 C 136.996094 403.859375 136.195312 402.179688 135.5625 400.414062 L 114.507812 341.835938 C 113.199219 338.203125 115.085938 334.191406 118.71875 332.886719 C 119.503906 332.605469 120.300781 332.472656 121.089844 332.472656 C 123.960938 332.472656 126.648438 334.246094 127.671875 337.105469 L 148.726562 395.675781 C 150.828125 401.511719 156.410156 405.429688 162.609375 405.429688 L 226.902344 405.429688 C 234.949219 405.429688 241.804688 399.597656 242.515625 392.15625 C 242.921875 387.925781 241.585938 383.882812 238.757812 380.769531"/><path d="M 258.597656 55.664062 C 310.96875 55.664062 353.574219 85.164062 353.574219 121.417969 C 353.574219 137.214844 345.25 152.53125 330.132812 164.539062 C 328.460938 165.863281 327.492188 167.878906 327.488281 170.007812 L 327.449219 201.910156 L 303.40625 182.75 C 302.152344 181.75 300.609375 181.226562 299.046875 181.226562 C 298.355469 181.226562 297.660156 181.328125 296.984375 181.539062 C 284.859375 185.277344 271.945312 187.175781 258.597656 187.175781 C 206.226562 187.175781 163.621094 157.679688 163.621094 121.417969 C 163.621094 85.164062 206.226562 55.664062 258.597656 55.664062 Z M 258.597656 201.171875 C 272.046875 201.171875 285.121094 199.417969 297.527344 195.960938 L 330.070312 221.890625 C 331.332031 222.894531 332.875 223.414062 334.429688 223.414062 C 335.464844 223.414062 336.5 223.1875 337.464844 222.722656 C 339.882812 221.558594 341.421875 219.113281 341.429688 216.425781 L 341.476562 173.320312 C 358.335938 158.910156 367.566406 140.59375 367.566406 121.417969 C 367.566406 77.445312 318.6875 41.671875 258.597656 41.671875 C 198.507812 41.671875 149.625 77.445312 149.625 121.417969 C 149.625 165.394531 198.507812 201.171875 258.597656 201.171875"/><path d="M 218.144531 129.941406 C 222.851562 129.941406 226.667969 126.125 226.667969 121.417969 C 226.667969 116.710938 222.851562 112.894531 218.144531 112.894531 C 213.4375 112.894531 209.621094 116.710938 209.621094 121.417969 C 209.621094 126.125 213.4375 129.941406 218.144531 129.941406"/><path d="M 258.597656 129.941406 C 263.304688 129.941406 267.121094 126.125 267.121094 121.417969 C 267.121094 116.710938 263.304688 112.894531 258.597656 112.894531 C 253.890625 112.894531 250.074219 116.710938 250.074219 121.417969 C 250.074219 126.125 253.890625 129.941406 258.597656 129.941406"/><path d="M 299.046875 129.941406 C 303.753906 129.941406 307.570312 126.125 307.570312 121.417969 C 307.570312 116.710938 303.753906 112.894531 299.046875 112.894531 C 294.339844 112.894531 290.523438 116.710938 290.523438 121.417969 C 290.523438 126.125 294.339844 129.941406 299.046875 129.941406"/></g></svg>